<?xml version="1.0" standalone="no"?><!DOCTYPE svg PUBLIC "-//W3C//DTD SVG 1.1//EN" "http://www.w3.org/Graphics/SVG/1.1/DTD/svg11.dtd"><svg t="1606916094067" class="icon" viewBox="0 0 1024 1024" version="1.1" xmlns="http://www.w3.org/2000/svg" p-id="1625" xmlns:xlink="http://www.w3.org/1999/xlink" width="200" height="200"><defs><style type="text/css"></style></defs><path d="M860.7 562.95c-4.8-6.61-12.06-16.48-13.06-19.19-1.25-5.98-2.01-23.1-2.69-38.43-0.57-13.04-1.16-26.05-2.12-36.23-2.65-27.93-19.22-43.01-45.46-43.01-2.9 0-5.97-3.67-9.16 0.27-1.8-0.75-3.77-1.19-5.81-1.19-0.56 0-1.12 0.03-1.68 0.09-1.11 0.13-2.28 0.34-3.44 0.57l-1.24 0.22c-0.92 0.13-1.83 0.3-2.74 0.51-2.16 0.5-4.41 1.17-6.08 1.74-0.34 0.09-0.95 0.28-1.29 0.39h-0.01c-8.24 2.79-17.38 7.26-27.41 13.27 8.99-28.3 13.7-57.99 13.7-87.88 0-159.83-130.03-289.86-289.86-289.86-55.76 0-109.91 15.96-156.7 46.1C203.47 158.28 137.5 261.93 137.5 374.76c0 130.88 85.32 243.08 207.57 279.62-0.83 0.8-1.74 1.6-2.46 2.39-0.01 0-0.01 0.02-0.02 0.02-0.01 0.01-0.02 0.01-0.02 0.02-0.02 0.02-0.04 0.05-0.06 0.07a49.947 49.947 0 0 0-3.68 4.53c-11.44 11.8-17.05 24.06-16.69 36.44 0.36 12.3 6.54 23.86 18.35 34.36 7.65 6.8 18.18 15.25 28.36 23.42 11.96 9.6 25.52 20.48 29.26 24.6 1.92 2.82 5.7 14.57 8.19 22.35 8.04 25.07 14.97 46.72 30.8 51.24 7.78 2.23 15.37 2.45 22.07 2.66 6.99 0.21 13.02 0.39 18.45 2.56l3.02 1.22c8.33 3.39 16.93 6.89 26.01 6.89 10.51 0 19.31-4.7 25.47-13.59 0.98-1.42 2.48-3.59 7.9-15.94 2.53 16.21 6.34 27.87 8.91 34.45 5.03 12.85 13.67 14.77 18.37 14.77 13.5 0 19.46-12.94 23.13-28.68 2.08 0.85 4.39 1.75 6.9 2.54 3.2 1.02 6.34 1.54 9.32 1.54 6.64 0 12.77-2.59 17.27-7.31 8.99-9.44 10.18-25.12 9.21-45.76-0.51-10.77-1.95-40.27-3.5-71.63l16.39 28.76 0.01-0.01 4.73 8.31c0.01 0.01 0.01 0.02 0.02 0.03l12.77 22.4L684 833c0.01 0.02 1.32 0.02 1.33 0.03l26.04 43.44v0.02l22.9 40.37v0.01l12.79 24.62c0.92 1.64 1.53 3.09 3 4.28 2.6 2.13 16.02 12.72 30.13 12.73 5.27 0 10.1-1.46 14.24-4.23 13.79-9.19 24.58-27.19 18.66-44.94-0.75-2.24-1.89-7.21-37.31-68.29h-0.02c-0.1 0-0.24-0.98-0.34-1.17-4.97-8.9-10.61-19.26-17.02-30.66-1.27-2.26-2.5-4.6-3.78-6.88-0.01-0.01-0.01-0.09-0.02-0.1-0.01-0.01 1.75-0.06 1.74-0.07l0.83-1.68v-0.02l-2.79-1.81-11.82-19.44c-0.01-0.03-0.48-0.05-0.51-0.08l-2.15-3.45c-0.02-0.02-0.8-0.05-0.81-0.08l-12.46-20.73v-0.01-0.02l-1.85-4.44c-0.01 0 0.31-0.02 0.31-0.03l-10.16-18.27c17.6 14.42 32.68 28.47 39.11 33.71 17.42 14.23 28.77 21.8 39.12 21.8h0.02c10.92 0 19.77-8.54 23.65-19.91 0.86-2.5 1.52-5.78 2.07-7.96 8.96 3.81 16.18 5.29 21.52 5.29 10.36 0 15.01-6.61 16.52-9.35 2.45-4.41 4.05-11.87-2.16-21.76-4.37-6.96-15.73-22.2-36.7-40 6.32 1.25 8.15 2.07 9.4 2.07h1.01c25.39 0 31.28-24.28 34.81-38.34l0.8-3.53c1.46-5.67 4.88-10.81 8.83-16.57 3.8-5.53 8.09-11.85 10.89-19.44 5.71-15.44-7.65-33.86-23.12-55.16z" p-id="1626"></path><path d="M187.76 354.08c0-96.6 49.92-181.48 125.32-230.42-94.65 43.99-160.31 139.85-160.31 251.09 0 137.42 100.15 251.39 231.43 273.05 17.45-7.64 39.36-14.17 62.13-19.64-144.19-8.29-258.57-127.8-258.57-274.08zM571.92 605.87c-0.95 0.42-1.87 0.87-2.83 1.28 0.77-0.09 1.5-0.17 2.17-0.25h-0.01s0.25-0.4 0.67-1.03z" fill="#FD7E83" p-id="1627"></path><path d="M187.76 354.08c0 146.27 114.38 265.79 258.57 274.09 49.69-11.92 103.25-18.76 122.76-21.03 0.96-0.4 1.89-0.86 2.83-1.28 3.13-4.65 17.18-24.14 32.71-24.83 11.53-12.53 54.52-58.38 98.21-94.42 21.71-39.3 34.1-84.47 34.1-132.54 0-151.66-122.94-274.59-274.59-274.59-55.05 0-106.29 16.26-149.26 44.17-75.42 48.95-125.33 133.83-125.33 230.43z m398.91 171.41c-28.63 15.9-90.35 33.08-130.43 34.99-40.08 1.91-78.88 2.55-108.15-19.72s-92.26-82.71-100.53-138.06-11.46-78.26 15.9-122.16c27.36-43.9 96.08-118.98 111.98-127.88 15.9-8.91 22.26-19.73 31.17-19.73 0 0 14.63 12.09 11.45 18.45-3.18 6.36-36.26 33.08-52.8 50.26s-88.44 108.15-90.35 131.7c-1.91 23.55-6.35 79.52 36.91 127.88s69.61 76.35 106.7 71.9c37.08-4.45 123.62-14 145.25-31.81 21.63-17.81 83.34-110.7 82.71-152.05-0.63-41.36-15.27-63.63-36.26-82.07-21-18.45-89.07-64.89-108.16-62.99-19.09 1.91-70.61 21.63-85.25 33.08s-56.63 50.9-54.08 92.89 11.46 95.43 44.54 109.43c33.08 13.99 57.89 18.45 94.16 15.27 36.26-3.18 60.44-31.81 69.99-71.9 9.54-40.08 10.81-57.89-4.46-73.16-15.27-15.27-45.8-36.9-64.25-36.9s-57.9 9.54-54.72 47.08c3.18 37.54 14.64 43.27 29.91 45.17 15.27 1.91 31.17-3.82 31.17-10.82s7.64-22.26-2.54-29.26-24.17-3.18-26.72-10.82-4.45-31.18 19.09-24.81c23.54 6.37 50.89 19.72 41.35 55.35-3.18 31.81-19.73 47.08-26.72 48.99-6.99 1.91-31.81 13.35-60.44-5.09-28.63-18.45-45.81-44.54-36.26-78.26 9.54-33.71 29.91-63.63 51.53-66.8 21.63-3.18 67.43-3.18 96.7 21.64 29.27 24.81 52.18 44.53 47.08 82.07-5.09 37.53-29.26 102.43-47.72 116.43-18.45 13.99-38.81 26.83-81.44 25.5-42.62-1.33-100.53-8.96-125.97-54.77s-36.26-112.61-13.99-157.14 89.07-92.89 112.61-96.71c23.54-3.82 66.81-11.45 111.98 20.36 48.35 28 99.88 72.53 102.43 94.8 8.28 21.63 12.09 66.16 0 98.61-12.12 32.44-54.74 115.16-83.37 131.06z" fill="#FDACAD" p-id="1628"></path><path d="M762.42 847.32l-17.37 61.98 14.04 24.63s17.18 14 26.72 7.63c9.54-6.35 15.91-18.45 12.73-27.99-1.34-4.03-27.47-50.99-57.22-103.91v0.01c7.34 13.09 14.51 25.86 21.1 37.65zM680.05 701.17c4.4 7.78 9.19 16.23 14.22 25.11-5.02-8.88-9.82-17.34-14.22-25.11zM726.34 783.08c-3.91-6.93-7.81-13.85-11.68-20.71 3.86 6.85 7.77 13.77 11.68 20.71zM739.37 806.23c-3.63-6.46-7.31-12.98-10.99-19.53 3.68 6.55 7.35 13.06 10.99 19.53zM712.13 757.88c-5.74-10.15-11.33-20.06-16.69-29.52v0.01c5.34 9.44 10.95 19.37 16.69 29.51zM675.91 693.85c-3.86-6.81-7.34-12.96-10.38-18.31 3.03 5.35 6.52 11.5 10.38 18.31zM697.27 825.44l24.77 43.48zM675.65 787.49l-11.64-20.43 18.56 32.58-6.92-12.15z" fill="#E3333D" p-id="1629"></path><path d="M740.37 808c-0.34-0.6-0.66-1.17-1-1.78v0.01c0.33 0.59 0.67 1.18 1 1.77zM741.31 809.68l-17.97 61.52-1.3-2.27v0.01l23 40.37 17.37-61.98c-6.58-11.8-13.75-24.57-21.1-37.65z" fill="#FD7430" p-id="1630"></path><path d="M697.27 825.44l24.78 43.48 1.3 2.27 17.97-61.52v-0.01l-0.94-1.67c-0.33-0.59-0.67-1.19-1-1.77-3.64-6.46-7.31-12.98-10.99-19.53-0.69-1.22-1.36-2.41-2.04-3.62-3.91-6.93-7.81-13.85-11.68-20.71l-17.4 63.08z" fill="#FED33E" p-id="1631"></path><path d="M679.25 793.8l-3.59-6.31 6.92 12.15 14.7 25.8 17.39-63.08v-0.01c-0.86-1.51-1.68-2.98-2.53-4.48-5.73-10.14-11.35-20.07-16.69-29.52l-16.2 65.45z" fill="#74EE58" p-id="1632"></path><path d="M648.64 657.9l-13.55 58.41 24.17 42.44v-0.01l-2.56-4.49 19.2-60.4c-3.86-6.81-7.35-12.96-10.38-18.31-1.45-2.56-2.8-4.94-4.03-7.1-4.73-3.89-9.06-7.44-12.85-10.54z" fill="#4280FC" p-id="1633"></path><path d="M656.71 754.25l2.56 4.49 4.74 8.33 11.65 20.43 3.59 6.31 16.19-65.44v-0.01c-0.4-0.7-0.78-1.37-1.17-2.07-5.03-8.88-9.82-17.33-14.22-25.11-1.42-2.5-2.81-4.97-4.14-7.32l-19.2 60.39z" fill="#54C8EC" p-id="1634"></path><path d="M648.64 657.9c-3.09-2.54-5.85-4.8-8.12-6.65-3.87 3.64-8.56 6.58-13.77 6.58-2.71 0-5.7-0.03-8.72-0.07l-7.18 9.33c0.11 2.33 0.23 4.75 0.36 7.3l23.89 41.94v-0.01l13.54-58.42z" fill="#8C55FC" p-id="1635"></path><path d="M650.68 637.35c-0.75 1.88-4.57 8.64-10.16 13.9 2.27 1.85 5.03 4.12 8.12 6.65 3.79 3.1 8.12 6.66 12.86 10.54 34.03 27.89 88.32 72.39 102.27 83.77 20.72 16.92 33.86 22.69 38.61 8.8 4.74-13.9 2.8-25.63 15.42-19.46 12.62 6.17 32.39 13.69 24.04 0.39-8.36-13.32-39.02-54.23-109.94-81.4-16.57-6.35-30.38-11.41-41.95-15.51-14.77-3.94-28.25-7.58-38.87-10.45-0.07 1.24-0.19 2.26-0.4 2.77zM610.85 667.07c-0.17-3.43-0.33-6.6-0.47-9.46-8.23-0.18-15.11-0.4-15.13-0.4-5.08 13.2-21.55 55.99-37.93 97.48-11.17 59.3 0.77 98.91 5.82 111.81 5.73 14.63 11.45-5.73 13.99-19.55 2.54-13.81 10.82-5.26 24.81-0.81 13.99 4.45 17.18-9.54 15.91-36.26-0.87-18.46-4.49-91.88-6.64-135.51-0.13-2.55-0.25-4.96-0.36-7.3z" fill="#840F23" p-id="1636"></path><path d="M357.94 663.16c2.94-2.51 6.42-4.94 10.33-7.28-3.91 2.34-7.39 4.77-10.33 7.28zM353.85 667.1c1.15-1.27 2.46-2.5 3.87-3.72-1.41 1.21-2.72 2.45-3.87 3.72zM369.71 693.44c11.45 10.18 58.54 24.19 66.17 27.36 7.63 3.18 14.63 16.54 19.72 40.72 5.09 24.17 7 42.62 24.18 34.98s45.81-35.62 59.8-59.17c11.03-18.56 42.99-72.65 56.02-94.7-0.95-12.77-5.79-30.14-24.35-35.74-0.67 0.07-1.39 0.16-2.17 0.25-19.5 2.27-73.07 9.1-122.76 21.03-22.77 5.46-44.68 12-62.13 19.64-5.73 2.51-11.02 5.14-15.66 7.9-3.09 15.32-5.18 33.5 1.18 37.73z m209.96-66.16s-73.96 58.1-82.07 60.96c-8.11 2.86-14.79-0.12-13.84-16.82 0.95-16.7 93.53-44.14 93.53-44.14h2.38z" fill="#C62B43" p-id="1637"></path><path d="M595.24 657.22s0.98-6.35 0.37-14.58c-13.03 22.05-44.99 76.14-56.02 94.7-13.99 23.55-42.62 51.53-59.8 59.17s-19.09-10.81-24.18-34.98c-5.09-24.18-12.09-37.55-19.72-40.72-7.63-3.18-54.72-17.18-66.17-27.36-6.36-4.23-4.28-22.41-1.17-37.74-0.1 0.06-0.18 0.12-0.28 0.18-3.91 2.34-7.39 4.76-10.33 7.28-0.08 0.07-0.14 0.15-0.22 0.22-1.41 1.22-2.72 2.45-3.87 3.72-1.23 1.33-2.3 2.7-3.22 4.09-18.13 18.13-17.18 34.36 0 49.63 17.18 15.27 50.58 40.08 59.17 49.63 8.59 9.54 18.13 64.89 31.49 68.71 13.36 3.82 27.68 0 41.99 5.73 14.32 5.73 27.68 12.41 36.26 0 3.97-5.74 20.82-47.24 37.77-90.17 16.39-41.52 32.86-84.31 37.93-97.51z" fill="#970D25" p-id="1638"></path><path d="M483.76 671.42c-0.95 16.7 5.73 19.68 13.84 16.82 8.11-2.86 82.07-60.96 82.07-60.96h-2.39s-92.57 27.44-93.52 44.14z" fill="#970D25" p-id="1639"></path><path d="M779.29 440.98c1.03-0.19 2.09-0.43 3.09-0.54-1 0.11-2.06 0.36-3.09 0.54zM771.41 442.98c1.83-0.6 3.62-1.14 5.36-1.55-1.73 0.41-3.54 0.95-5.36 1.55zM604.63 581.04c0.69-0.03 1.38-0.09 2.08-0.05 11.8 0.81 19.88 1 26.34 5.32 23.05-16.44 65.92-45.09 76.06-38.52 14.02 9.1 12.49 16.25 5.39 21.1-4.81 3.29-47.78 15.93-75.1 23.78 1.16 1.65 2.3 3.52 3.41 5.73 4.38 8.75 6.64 18.18 7.66 25.65 28.53 2.82 63.76 6.29 78.83 7.74 27.27 2.62 66.77-3.93 83.08-13.27 16.31-9.35 2.55-21.79-13.94-40.19-16.49-18.39-23.14-31.93-21.19-39.97 1.94-8.04 18.47-54.3 17.03-69.55 0.34-7.64-15.55-16.71-29.76-23.25 2.15-0.91 4.25-1.72 6.29-2.42-19.38 6.56-43.77 23.51-67.97 43.47-43.69 36.05-86.68 81.91-98.21 94.43z" fill="#C62B43" p-id="1640"></path><path d="M832.69 546.66c-2.63-12.58-2.9-54.18-5.07-77.06-2.17-22.88-14.7-33.24-40.03-29.33a35.69 35.69 0 0 0-5.22 0.18c-0.99 0.11-2.06 0.36-3.09 0.54-0.84 0.16-1.66 0.25-2.52 0.45-1.74 0.41-3.53 0.95-5.36 1.55-0.2 0.07-0.4 0.1-0.6 0.17-2.04 0.69-4.14 1.51-6.29 2.42 14.2 6.55 30.09 15.61 29.76 23.25 1.44 15.25-15.09 61.5-17.03 69.55-1.95 8.04 4.7 21.58 21.19 39.97 16.49 18.39 30.25 30.84 13.94 40.19-16.31 9.34-55.81 15.9-83.08 13.27-15.07-1.45-50.3-4.92-78.83-7.74 0.6 4.42 0.75 8.08 0.61 10.52 10.62 2.87 24.1 6.5 38.87 10.45 55.31 14.75 128.67 33.9 137.93 34.15 15.08 0.4 17.59-14.32 21.43-29.26 3.85-14.93 15.38-24.22 20.19-37.26 4.83-13.04-34.18-53.44-36.8-66.01z" fill="#970D25" p-id="1641"></path><path d="M639.4 592.68c27.32-7.84 70.29-20.49 75.1-23.78 7.1-4.85 8.63-12-5.39-21.1-10.14-6.57-53.01 22.08-76.06 38.52 2.29 1.52 4.39 3.56 6.35 6.36z" fill="#970D25" p-id="1642"></path><path d="M639.4 592.68c-1.97-2.8-4.06-4.84-6.35-6.36-6.46-4.32-14.54-4.51-26.34-5.32-0.7-0.05-1.39 0.02-2.08 0.05-15.52 0.69-29.58 20.17-32.71 24.83-0.43 0.63-0.67 1.03-0.67 1.03h0.01c18.56 5.61 23.4 22.97 24.35 35.74 0.61 8.23-0.37 14.58-0.37 14.58h0.01c0.02 0 6.9 0.22 15.13 0.4 2.48 0.05 5.07 0.1 7.65 0.13 3.02 0.05 6.01 0.07 8.72 0.07 5.21 0 9.9-2.94 13.77-6.58 5.59-5.26 9.41-12.02 10.16-13.9 0.2-0.51 0.32-1.53 0.39-2.77 0.14-2.44-0.01-6.1-0.61-10.52-1.01-7.47-3.28-16.9-7.66-25.65-1.1-2.21-2.23-4.08-3.4-5.73z" fill="#A12034" p-id="1643"></path><path d="M670.01 295.81c-2.55-22.27-54.08-66.8-102.43-94.8-45.17-31.81-88.44-24.18-111.98-20.36-23.54 3.82-90.34 52.18-112.61 96.71S331.54 388.7 356.98 434.5s83.35 53.44 125.97 54.77c42.62 1.33 62.99-11.5 81.44-25.5 18.45-14 42.62-78.9 47.72-116.43 5.09-37.54-17.81-57.26-47.08-82.07-29.27-24.81-75.07-24.81-96.7-21.64-21.63 3.18-41.99 33.09-51.53 66.8-9.54 33.71 7.63 59.81 36.26 78.26 28.63 18.45 53.44 7 60.44 5.09 6.99-1.91 23.55-17.18 26.72-48.99 9.54-35.63-17.81-48.98-41.35-55.35-23.54-6.37-21.64 17.18-19.09 24.81s16.54 3.82 26.72 10.82 2.54 22.27 2.54 29.26-15.9 12.73-31.17 10.82c-15.27-1.91-26.72-7.63-29.91-45.17-3.18-37.54 36.26-47.08 54.72-47.08s48.98 21.63 64.25 36.9c15.27 15.27 14 33.08 4.46 73.16s-33.72 68.71-69.99 71.9c-36.26 3.18-61.08-1.27-94.16-15.27-33.08-13.99-41.99-67.44-44.54-109.43s39.45-81.44 54.08-92.89c14.64-11.45 66.16-31.17 85.25-33.08 19.09-1.91 87.17 44.53 108.16 62.99 21 18.45 35.63 40.72 36.26 82.07 0.63 41.35-61.08 134.24-82.71 152.05-21.63 17.81-108.16 27.36-145.25 31.81-37.08 4.45-63.44-23.54-106.7-71.9s-38.81-104.34-36.91-127.88c1.91-23.55 73.8-114.52 90.35-131.7 16.54-17.18 49.63-43.9 52.8-50.26 3.18-6.36-11.45-18.45-11.45-18.45-8.91 0-15.27 10.82-31.17 19.73-15.9 8.9-84.62 83.98-111.98 127.88-27.36 43.9-24.17 66.8-15.9 122.16s71.25 115.79 100.53 138.06 68.07 21.63 108.15 19.72c40.08-1.91 101.8-19.09 130.43-34.99 28.63-15.9 71.25-98.62 83.34-131.06 12.12-32.44 8.31-76.98 0.03-98.61z" fill="#FFF3F9" p-id="1644"></path></svg>